PathFileType	4	(X/Y/Z)	Walk1.trc
DataRate	CameraRate	NumFrames	NumMarkers	Units	OrigDataRate	OrigDataStartFrame	OrigNumFrames
200.000000	200.000000	4	61	mm	200.000000	764	925
Frame#	Times		RCAR		LTH3		RTH2		LBHD		RWRU		LWRU		LUA1		RTH3		LElbow		RFA1		LFA1		LCAR		LElbowM		C7		RTB3		RToe		RPSI		RTB2		RTB1		RMT5		LTH2		RElbow		RLFC		RBHD		RMT1		RTB4		RMMAL		LWRR		T10		RLMAL		LPSI		RBack		RCAL		LLFC		STRN		LASI		LTB3		RUA1		LACR1		RASI		RElbowM		LMMAL		RFHD		LTB1		LTB2		LMFC		LCAL		RTH1		LTB4		RMFC		LFHD		LLMAL		LMT5		RACR1		RTH4		LTH4		CLAV		RWRR		LToe		LMT1		LTH1
			X1	Y1	Z1	X2	Y2	Z2	X3	Y3	Z3	X4	Y4	Z4	X5	Y5	Z5	X6	Y6	Z6	X7	Y7	Z7	X8	Y8	Z8	X9	Y9	Z9	X10	Y10	Z10	X11	Y11	Z11	X12	Y12	Z12	X13	Y13	Z13	X14	Y14	Z14	X15	Y15	Z15	X16	Y16	Z16	X17	Y17	Z17	X18	Y18	Z18	X19	Y19	Z19	X20	Y20	Z20	X21	Y21	Z21	X22	Y22	Z22	X23	Y23	Z23	X24	Y24	Z24	X25	Y25	Z25	X26	Y26	Z26	X27	Y27	Z27	X28	Y28	Z28	X29	Y29	Z29	X30	Y30	Z30	X31	Y31	Z31	X32	Y32	Z32	X33	Y33	Z33	X34	Y34	Z34	X35	Y35	Z35	X36	Y36	Z36	X37	Y37	Z37	X38	Y38	Z38	X39	Y39	Z39	X40	Y40	Z40	X41	Y41	Z41	X42	Y42	Z42	X43	Y43	Z43	X44	Y44	Z44	X45	Y45	Z45	X46	Y46	Z46	X47	Y47	Z47	X48	Y48	Z48	X49	Y49	Z49	X50	Y50	Z50	X51	Y51	Z51	X52	Y52	Z52	X53	Y53	Z53	X54	Y54	Z54	X55	Y55	Z55	X56	Y56	Z56	X57	Y57	Z57	X58	Y58	Z58	X59	Y59	Z59	X60	Y60	Z60	X61	Y61	Z61

764	3.82	318.09	831.07	320.16	268.81	608.79	-162.28	335.36	718	169.29	196.27	1645.3	-62.025	256.93	859.95	328.02	254.64	864.71	-260.28	188.8	1295.5	-251.42	273.9	617.3	192.19	167.26	1138.7	-272.97	227.43	994.65	333.91	205.58	991.12	-276.72	331.13	836.12	-268.82	136.91	1128.3	-201.47	173.75	1517	9.999	273.55	188.7	96.132	411.9	31.35	120.75	72.429	1028.3	75.366	270.6	274.99	168.18	311.12	370.55	110.72	306.05	25.45	175.25	322.03	713.63	-152.2	202.58	1143.5	314.5	272.38	499.88	184.05	212.97	1651.1	78.381	357.62	38.587	96.649	292.75	279.33	102.06	249.63	92.263	57.653	322.39	889.67	-217.56	65.1	1296	22.061	215.79	69.816	137.54	62.325	1020.8	-2.0233	106.3	1429.8	149.36	159.11	34.576	87.781	267.67	513.67	-157.09	345.66	1252.2	-4.5824	261.44	1036.4	-127.62	95.518	259.67	-92.889	235.09	1294.5	268.92	230.98	1468.7	-160.08	293.32	1044.9	156.81	157.09	1128	248.22	9.9379	193.95	-51.865	385.98	1686.4	35.377	240.4	376.07	-94.942	149.2	346.26	-160.28	305.71	513.67	-30.256	-97.703	213.77	-71.946	261.63	806.99	212.62	170.74	319.9	-92.48	273.91	514.36	52.869	377.96	1684.7	-40.753	-34.917	208.29	-127.27	-9.5395	100.85	-166.71	261.04	1463.3	164.69	271.27	710.49	205.44	253.4	699.66	-168.59	302.49	1425.7	1.2279	301.9	868.42	266.66	73.664	50.892	-119.54	38.836	73.75	-94.254	240.47	790.91	-173.63
765	3.825	327.27	832.25	319.49	277.38	610.22	-162.09	338.43	717.55	169.3	201.4	1645.6	-61.821	265.98	860.71	327.93	256.01	864.4	-259.3	192.65	1295.7	-250.83	276.41	617.3	192.34	170.37	1138.9	-271.9	235.89	995.25	334.16	207.74	991.15	-275.62	332.29	835.26	-267.9	140.21	1128.8	-200.3	178.96	1517.5	10.287	273.99	188.55	96.033	411.96	31.306	120.82	77.264	1028.7	75.83	271.36	274.81	168.13	312.2	370.28	110.7	306.05	25.458	175.21	329.55	715.63	-152.06	210.12	1144	315.12	274.04	499.77	184.06	218.24	1651.5	78.561	357.65	38.57	96.625	293.48	279.11	102.01	249.75	92.228	57.488	324.03	888.94	-216.67	70.177	1296.5	22.754	215.84	69.856	137.47	67.106	1021.4	-1.6073	111.7	1430.4	149.88	159.12	34.623	87.69	277.25	515.31	-156.82	350.6	1252.5	-4.4637	266.26	1036.8	-127.36	108	259.41	-92.556	241.73	1295.1	269.11	235.78	1469	-159.9	298.08	1045.2	157.15	164.05	1128.3	249.26	23.265	192.73	-51.27	391.21	1686.8	35.393	251.77	377.24	-94.981	160.35	346.9	-159.84	315.72	515.38	-30.29	-84.896	210.9	-70.989	265.69	807.1	212.69	182.59	320.36	-92.328	275.47	514.3	52.841	383.12	1685.1	-40.731	-22.047	206.67	-126.51	4.9932	99.863	-166.37	266.47	1463.8	164.82	274.36	710.66	206.03	260.96	700.91	-168.39	307.65	1426.1	1.3911	310.32	869.45	266.1	89.197	50.834	-119.75	54.132	73.343	-94.206	247.18	791.85	-173.36
766	3.83	336.45	833.45	318.8	285.93	611.65	-161.91	341.48	717.09	169.3	206.54	1646	-61.649	275.05	861.47	327.79	257.39	864.12	-258.3	196.49	1295.8	-250.26	278.88	617.3	192.46	173.46	1139.1	-270.86	244.36	995.86	334.37	209.89	991.17	-274.53	333.45	834.43	-266.99	143.5	1129.3	-199.15	184.17	1517.9	10.556	274.41	188.38	95.936	412.02	31.262	120.89	82.092	1029.2	76.257	272.09	274.65	168.09	313.26	370.02	110.66	306.05	25.466	175.16	337.07	717.61	-151.91	217.66	1144.6	315.69	275.65	499.66	184.07	223.5	1651.9	78.711	357.69	38.555	96.601	294.2	278.89	101.97	249.86	92.194	57.33	325.67	888.23	-215.8	75.248	1297	23.416	215.88	69.897	137.39	71.874	1021.9	-1.2308	117.1	1431	150.38	159.12	34.671	87.596	286.73	516.93	-156.55	355.55	1252.8	-4.3416	271.13	1037.3	-127.08	120.6	258.98	-92.213	248.36	1295.7	269.26	240.59	1469.2	-159.74	302.81	1045.5	157.53	171.05	1128.7	250.23	36.773	191.27	-50.678	396.43	1687.2	35.383	263.11	378.38	-95.007	171.52	347.39	-159.4	325.59	517.08	-30.345	-71.889	207.69	-70.071	269.69	807.21	212.76	194.47	320.72	-92.167	277.02	514.23	52.799	388.28	1685.5	-40.739	-8.9836	204.74	-125.76	19.814	98.601	-166	271.88	1464.4	164.93	277.44	710.82	206.55	268.51	702.17	-168.22	312.8	1426.4	1.5396	318.77	870.5	265.52	105.02	50.628	-119.87	69.688	72.738	-94.094	253.96	792.8	-173.1
767	3.835	345.65	834.65	318.08	294.43	613.08	-161.74	344.53	716.62	169.3	211.68	1646.3	-61.511	284.15	862.25	327.61	258.78	863.85	-257.29	200.33	1296	-249.72	281.32	617.3	192.57	176.54	1139.3	-269.86	252.81	996.47	334.52	212.04	991.19	-273.46	334.61	833.62	-266.1	146.78	1129.9	-198.03	189.37	1518.4	10.807	274.82	188.22	95.844	412.07	31.218	120.96	86.914	1029.6	76.647	272.81	274.49	168.03	314.3	369.76	110.63	306.05	25.476	175.12	344.58	719.56	-151.75	225.17	1145.1	316.21	277.22	499.55	184.06	228.77	1652.3	78.833	357.72	38.543	96.578	294.92	278.68	101.91	249.96	92.161	57.182	327.33	887.54	-214.96	80.312	1297.5	24.048	215.92	69.941	137.32	76.631	1022.4	-0.89174	122.48	1431.5	150.84	159.12	34.722	87.499	296.09	518.52	-156.28	360.49	1253.1	-4.2139	276.05	1037.9	-126.77	133.3	258.39	-91.86	254.97	1296.3	269.38	245.39	1469.4	-159.58	307.53	1045.9	157.96	178.07	1129	251.14	50.458	189.57	-50.092	401.67	1687.6	35.347	274.42	379.49	-95.013	182.7	347.74	-158.95	335.3	518.78	-30.41	-58.678	204.15	-69.191	273.64	807.31	212.81	206.4	320.99	-91.995	278.55	514.17	52.747	393.45	1685.8	-40.775	4.271	202.5	-125.02	34.914	97.078	-165.59	277.28	1464.9	165.02	280.51	710.97	207.01	276.04	703.44	-168.06	317.94	1426.7	1.674	327.25	871.55	264.91	121.12	50.282	-119.92	85.496	71.945	-93.931	260.8	793.75	-172.86
